# xmcd
#
# Track frame offsets:
#	150
#	16650
#	35809
#	53520
#	71230
#	89552
#	101140
#	117618
#	136755
#	154468
#	172163
#	190473
#	213458
#
# Disc length: 2858 seconds
#
# Revision: 1
# Processed by: cddbd v1.5.2PL0 Copyright (c) Steve Scherf et al.
# Submitted via: audiograbber 1.83.01
#
DISCID=c50b280d
DTITLE=Garth Brooks - Karaoke
DYEAR=1900
DGENRE=Country
TTITLE0=American Honky-Tonk Bar Association
TTITLE1=The Dance
TTITLE2=If Tomorrow Never Comes
TTITLE3=Friends In Low Places
TTITLE4=Shameless
TTITLE5=Longneck Bottle
TTITLE6=American Htba (Voiced)
TTITLE7=The Dance (Voiced)
TTITLE8=If Tomorrow Never Comes (Voice)
TTITLE9=Friends In Low Places (Voice)
TTITLE10=Shameless (Voice)
TTITLE11=Longneck Bottle (Voice)
TTITLE12=Data Track
EXTD=Karaoke CD
EXTT0=
EXTT1=
EXTT2=
EXTT3=
EXTT4=
EXTT5=
EXTT6=
EXTT7=
EXTT8=
EXTT9=
EXTT10=
EXTT11=
EXTT12=
PLAYORDER=
